<svg version="1.2" xmlns="http://www.w3.org/2000/svg" viewBox="0 0 1145 383" width="1145" height="383">
	<title>ICM</title>
	<style>
		tspan { white-space:pre } 
		.s0 { fill: #e30d17 } 
		.t1 { font-size: 66px;fill: #e30d17;font-family: "Times New Roman" } 
	</style>
	<g id="Layer 1">
		<path id="&lt;Compound Path&gt;" class="s0" d="m258.4 67.7c7.2-0.4 20.8-3.5 20.8 4.8 0 5.2-3.1 9.4-5.5 12.3-2.7 3.3-6.7 6.4-7.7 10.4 4.6-0.3 10.3-4 13.4-6.4 4.1-3.1 7.9-5.2 11.2-9 2.7-2.8 7-8.5 7.7-12.5 1.6-13.5-33.9-7.3-39.9 0.4zm-95.6 140c6 1.2 5.7 0 14.8-9.9 4.6-5.2 8.4-9.2 12.9-14.4 4.6-5 7.9-9 12-14.2 2.4-2.9 3.8-4.3 6-7.4l4-5.9c1.4-1.6 0.5-0.7 1.9-2.1 0 27.7 3.4 49.9 28.2 63.6 24.6 13.5 63.1 3.3 84.6-7.8 7.4-3.8 13.6-8.3 19.6-13.5 3.1-2.8 5.7-4.7 8.8-7.5 3.4-2.9 4.6-5 8.2-8.1 6.2-5.2 11.6-9.7 17.6-15.1 10.3-9.2 23.4-27.7 42.3-19.9 18.7 7.8 1.2 59.4 1.2 76.4 6.9 1.4 5.8 0.2 10.8-4 22.4-19.7 42.2-54.6 69.3-54.6 8.1 0 13.3 4 16.2 8.7 4.3 7.3 2.4 10.2 3.8 19.4 1.7 10.6-3.8 36.2 10.8 36.2 8.8 0 26-34.3 32.5-43.8 14.3-20.1 19.6-37.6 44.2-37.6 9 0 13.8 8.1 15.5 15.2 4.3 18.4-0.5 33.8 12.7 46.5 19.1 18.7 53.5 6.2 74.7-2.1 29.2-11.3 60.3-11.6 92.7-5.2 29.4 5.9 53.8 19.4 99.2 19.4h16.5c12.9 0 59.9-4.7 57.8-13.2-1.2-4.8-29.6 4.7-44.7 5.6-6.7 0.5-12.2 0-17.9 0.7-4.8 0.5-27.7-1.4-33.9-2.1-42.8-5.4-51.9-14.9-89.1-19.6-19.9-2.6-48.5-1.4-66.9 2.6-20.1 4.2-31.8 12.1-58.1 14.2-40.6 3.1-22.4-45.6-34.2-66-4.3-7.3-13.1-12-23.4-12-25.5 0-53 54.6-63.1 70.2-2.8 4.2-5.5 9.2-9 10.1-1.7-2.8-2.2-16-2.4-20.8-0.3-5.6-2.6-13.9-4.6-18.6-5.2-11.6-11.9-20.6-28.6-19.4-14.9 0.9-18.2 4.9-26.3 11.3-2.6 2.4-4.3 2.9-6.9 5.2l-25.6 23.4c1.2-12.7 2.1-13.4 2.1-28.3 0-29.1-34.4-46.1-64.7-13.3-2.6 2.6-3.4 3.3-6.2 5.9-3.1 2.6-3.6 4.1-6.7 6.7-21 18.9-47.6 48.9-81.2 48.9-20.6 0-31.8-1.4-47.1-14.4-20.8-18-18.2-45.9-3.6-67.9 9.1-13.7 31.8-29.3 19.8-29.3-7.8 0-21.5 18.9-26.5 24.6l-64.5 75.6c-2.6 3.1-5 3.6-5.5 7.6z"/>
		<text id="IGLESIA CRISTIANA MARANATA" style="transform: matrix(1,0,0,1,72.25,301.215)" >
			<tspan x="0" y="0" class="t1">IGLESIA CRISTIANA MARANATA
</tspan>
		</text>
	</g>
</svg>